<svg xmlns="http://www.w3.org/2000/svg" xmlns:xlink="http://www.w3.org/1999/xlink" width="1024" zoomAndPan="magnify" viewBox="0 0 768 767.999994" height="1024" preserveAspectRatio="xMidYMid meet" version="1.0"><defs><g/><clipPath id="725c1fd48a"><path d="M 37.839844 46 L 730.089844 46 L 730.089844 738.105469 L 37.839844 738.105469 Z M 37.839844 46 " clip-rule="nonzero"/></clipPath><clipPath id="cf8615f188"><path d="M 37.089844 59.355469 L 37.089844 724.671875 C 37.089844 732.542969 43.46875 738.921875 51.339844 738.921875 L 716.660156 738.921875 C 724.53125 738.921875 730.910156 732.542969 730.910156 724.671875 L 730.910156 59.355469 C 730.910156 51.484375 724.53125 45.105469 716.660156 45.105469 L 51.339844 45.105469 C 43.46875 45.105469 37.089844 51.484375 37.089844 59.355469 Z M 37.089844 59.355469 " clip-rule="nonzero"/></clipPath><clipPath id="d32d548119"><path d="M 52.242188 46.003906 L 715.757812 46.003906 C 723.628906 46.003906 730.007812 52.382812 730.007812 60.253906 L 730.007812 723.773438 C 730.007812 731.644531 723.628906 738.023438 715.757812 738.023438 L 52.242188 738.023438 C 44.371094 738.023438 37.992188 731.644531 37.992188 723.773438 L 37.992188 60.253906 C 37.992188 52.382812 44.371094 46.003906 52.242188 46.003906 Z M 52.242188 46.003906 " clip-rule="nonzero"/></clipPath><clipPath id="77b9976449"><path d="M 37.089844 45.105469 L 730.839844 45.105469 L 730.839844 738.855469 L 37.089844 738.855469 Z M 37.089844 45.105469 " clip-rule="nonzero"/></clipPath><clipPath id="f9ba5f3482"><path d="M 37.089844 59.355469 L 37.089844 724.671875 C 37.089844 732.542969 43.46875 738.921875 51.339844 738.921875 L 716.660156 738.921875 C 724.53125 738.921875 730.910156 732.542969 730.910156 724.671875 L 730.910156 59.355469 C 730.910156 51.484375 724.53125 45.105469 716.660156 45.105469 L 51.339844 45.105469 C 43.46875 45.105469 37.089844 51.484375 37.089844 59.355469 Z M 37.089844 59.355469 " clip-rule="nonzero"/></clipPath><clipPath id="b4b38d35da"><path d="M 37.089844 59.355469 L 37.089844 724.664062 C 37.089844 732.53125 43.46875 738.914062 51.339844 738.914062 L 716.648438 738.914062 C 724.519531 738.914062 730.898438 732.53125 730.898438 724.664062 L 730.898438 59.355469 C 730.898438 51.484375 724.519531 45.105469 716.648438 45.105469 L 51.339844 45.105469 C 43.46875 45.105469 37.089844 51.484375 37.089844 59.355469 Z M 37.089844 59.355469 " clip-rule="nonzero"/></clipPath></defs><rect x="-76.8" width="921.6" fill="#ffffff" y="-76.799999" height="921.599993" fill-opacity="1"/><rect x="-76.8" width="921.6" fill="#8c52ff" y="-76.799999" height="921.599993" fill-opacity="1"/><g clip-path="url(#725c1fd48a)"><g clip-path="url(#cf8615f188)"><g clip-path="url(#d32d548119)"><path fill="#000000" d="M 383.964844 45.105469 C 192.582031 45.105469 37.089844 200.59375 37.089844 391.980469 C 37.089844 583.363281 192.582031 738.855469 383.964844 738.855469 C 575.351562 738.855469 730.839844 583.363281 730.839844 391.980469 C 730.839844 200.59375 575.351562 45.105469 383.964844 45.105469 Z M 383.964844 60.1875 C 567.402344 60.1875 715.757812 208.542969 715.757812 391.980469 C 715.757812 575.414062 567.402344 723.773438 383.964844 723.773438 C 200.527344 723.773438 52.171875 575.414062 52.171875 391.980469 C 52.171875 208.542969 200.527344 60.1875 383.964844 60.1875 Z M 383.964844 60.1875 " fill-opacity="1" fill-rule="nonzero"/></g></g></g><g clip-path="url(#77b9976449)"><g clip-path="url(#f9ba5f3482)"><g clip-path="url(#b4b38d35da)"><path stroke-linecap="butt" transform="matrix(0.75, 0, 0, 0.75, 37.090471, 45.104223)" fill="none" stroke-linejoin="miter" d="M -0.000836553 19.001661 L -0.000836553 906.07983 C -0.000836553 916.569414 8.504372 925.079831 18.999164 925.079831 L 906.077333 925.079831 C 916.572125 925.079831 925.077334 916.569414 925.077334 906.07983 L 925.077334 19.001661 C 925.077334 8.506869 916.572125 0.00166051 906.077333 0.00166051 L 18.999164 0.00166051 C 8.504372 0.00166051 -0.000836553 8.506869 -0.000836553 19.001661 Z M -0.000836553 19.001661 " stroke="#000000" stroke-width="44" stroke-opacity="1" stroke-miterlimit="4"/></g></g></g><g fill="#ff5757" fill-opacity="1"><g transform="translate(194.754126, 602.46148)"><g><path d="M 31.109375 0 L 31.109375 -7.9375 C 40.460938 -10.78125 46.867188 -16.878906 50.328125 -26.234375 C 53.785156 -35.585938 55.515625 -52.664062 55.515625 -77.46875 L 55.515625 -349.5625 C 55.515625 -374.769531 53.785156 -391.945312 50.328125 -401.09375 C 46.867188 -410.25 40.460938 -416.253906 31.109375 -419.109375 L 31.109375 -427.03125 L 129.9375 -427.03125 L 129.9375 -419.109375 C 120.582031 -416.253906 114.175781 -410.25 110.71875 -401.09375 C 107.257812 -391.945312 105.53125 -374.769531 105.53125 -349.5625 L 105.53125 -194.609375 L 265.375 -358.09375 C 284.488281 -378.019531 295.566406 -393.171875 298.609375 -403.546875 C 301.660156 -413.921875 297.289062 -419.921875 285.5 -421.546875 L 285.5 -427.03125 L 370.296875 -427.03125 L 370.296875 -419.109375 C 360.535156 -416.253906 349.144531 -412.082031 336.125 -406.59375 C 323.113281 -401.101562 307.863281 -389.410156 290.375 -371.515625 L 160.4375 -238.53125 L 174.46875 -239.140625 C 197.25 -240.765625 215.859375 -239.644531 230.296875 -235.78125 C 244.734375 -231.914062 256.726562 -224.898438 266.28125 -214.734375 C 275.84375 -204.566406 284.789062 -190.738281 293.125 -173.25 C 301.46875 -155.757812 310.722656 -134.003906 320.890625 -107.984375 C 331.460938 -81.953125 340.203125 -61.71875 347.109375 -47.28125 C 354.023438 -32.84375 360.429688 -22.773438 366.328125 -17.078125 C 372.222656 -11.390625 378.425781 -8.546875 384.9375 -8.546875 C 386.96875 -8.546875 388.796875 -8.546875 390.421875 -8.546875 C 392.054688 -8.546875 393.6875 -8.75 395.3125 -9.15625 L 395.3125 -1.21875 C 390.019531 0.40625 384.222656 1.519531 377.921875 2.125 C 371.617188 2.738281 365.210938 3.046875 358.703125 3.046875 C 344.066406 3.046875 332.273438 -0.101562 323.328125 -6.40625 C 314.378906 -12.707031 306.34375 -23.078125 299.21875 -37.515625 C 292.101562 -51.953125 283.664062 -70.96875 273.90625 -94.5625 C 263.738281 -119.363281 255.097656 -140.40625 247.984375 -157.6875 C 240.867188 -174.976562 233.648438 -188.910156 226.328125 -199.484375 C 219.003906 -210.054688 210.460938 -217.679688 200.703125 -222.359375 C 190.941406 -227.035156 178.332031 -229.171875 162.875 -228.765625 L 150.6875 -228.765625 L 105.53125 -182.40625 L 105.53125 -77.46875 C 105.53125 -52.664062 107.257812 -35.585938 110.71875 -26.234375 C 114.175781 -16.878906 120.582031 -10.78125 129.9375 -7.9375 L 129.9375 0 Z M 31.109375 0 "/></g></g></g></svg>