<svg xmlns="http://www.w3.org/2000/svg" xmlns:xlink="http://www.w3.org/1999/xlink" width="1024" zoomAndPan="magnify" viewBox="0 0 768 767.999994" height="1024" preserveAspectRatio="xMidYMid meet" version="1.0"><defs><g/><clipPath id="2dc2bce94d"><path d="M 37.839844 46 L 730.089844 46 L 730.089844 738.105469 L 37.839844 738.105469 Z M 37.839844 46 " clip-rule="nonzero"/></clipPath><clipPath id="0ae9909098"><path d="M 37.089844 59.355469 L 37.089844 724.671875 C 37.089844 732.542969 43.46875 738.921875 51.339844 738.921875 L 716.660156 738.921875 C 724.53125 738.921875 730.910156 732.542969 730.910156 724.671875 L 730.910156 59.355469 C 730.910156 51.484375 724.53125 45.105469 716.660156 45.105469 L 51.339844 45.105469 C 43.46875 45.105469 37.089844 51.484375 37.089844 59.355469 Z M 37.089844 59.355469 " clip-rule="nonzero"/></clipPath><clipPath id="8a0ceec58b"><path d="M 52.242188 46.003906 L 715.757812 46.003906 C 723.628906 46.003906 730.007812 52.382812 730.007812 60.253906 L 730.007812 723.773438 C 730.007812 731.644531 723.628906 738.023438 715.757812 738.023438 L 52.242188 738.023438 C 44.371094 738.023438 37.992188 731.644531 37.992188 723.773438 L 37.992188 60.253906 C 37.992188 52.382812 44.371094 46.003906 52.242188 46.003906 Z M 52.242188 46.003906 " clip-rule="nonzero"/></clipPath><clipPath id="af53aaa1ab"><path d="M 37.089844 45.105469 L 730.839844 45.105469 L 730.839844 738.855469 L 37.089844 738.855469 Z M 37.089844 45.105469 " clip-rule="nonzero"/></clipPath><clipPath id="d2de89054c"><path d="M 37.089844 59.355469 L 37.089844 724.671875 C 37.089844 732.542969 43.46875 738.921875 51.339844 738.921875 L 716.660156 738.921875 C 724.53125 738.921875 730.910156 732.542969 730.910156 724.671875 L 730.910156 59.355469 C 730.910156 51.484375 724.53125 45.105469 716.660156 45.105469 L 51.339844 45.105469 C 43.46875 45.105469 37.089844 51.484375 37.089844 59.355469 Z M 37.089844 59.355469 " clip-rule="nonzero"/></clipPath><clipPath id="02f60b5df7"><path d="M 37.089844 59.355469 L 37.089844 724.664062 C 37.089844 732.53125 43.46875 738.914062 51.339844 738.914062 L 716.648438 738.914062 C 724.519531 738.914062 730.898438 732.53125 730.898438 724.664062 L 730.898438 59.355469 C 730.898438 51.484375 724.519531 45.105469 716.648438 45.105469 L 51.339844 45.105469 C 43.46875 45.105469 37.089844 51.484375 37.089844 59.355469 Z M 37.089844 59.355469 " clip-rule="nonzero"/></clipPath></defs><rect x="-76.8" width="921.6" fill="#ffffff" y="-76.799999" height="921.599993" fill-opacity="1"/><rect x="-76.8" width="921.6" fill="#8c52ff" y="-76.799999" height="921.599993" fill-opacity="1"/><g clip-path="url(#2dc2bce94d)"><g clip-path="url(#0ae9909098)"><g clip-path="url(#8a0ceec58b)"><path fill="#000000" d="M 383.964844 45.105469 C 192.582031 45.105469 37.089844 200.59375 37.089844 391.980469 C 37.089844 583.363281 192.582031 738.855469 383.964844 738.855469 C 575.351562 738.855469 730.839844 583.363281 730.839844 391.980469 C 730.839844 200.59375 575.351562 45.105469 383.964844 45.105469 Z M 383.964844 60.1875 C 567.402344 60.1875 715.757812 208.542969 715.757812 391.980469 C 715.757812 575.414062 567.402344 723.773438 383.964844 723.773438 C 200.527344 723.773438 52.171875 575.414062 52.171875 391.980469 C 52.171875 208.542969 200.527344 60.1875 383.964844 60.1875 Z M 383.964844 60.1875 " fill-opacity="1" fill-rule="nonzero"/></g></g></g><g clip-path="url(#af53aaa1ab)"><g clip-path="url(#d2de89054c)"><g clip-path="url(#02f60b5df7)"><path stroke-linecap="butt" transform="matrix(0.75, 0, 0, 0.75, 37.090471, 45.104223)" fill="none" stroke-linejoin="miter" d="M -0.000836553 19.001661 L -0.000836553 906.07983 C -0.000836553 916.569414 8.504372 925.079831 18.999164 925.079831 L 906.077333 925.079831 C 916.572125 925.079831 925.077334 916.569414 925.077334 906.07983 L 925.077334 19.001661 C 925.077334 8.506869 916.572125 0.00166051 906.077333 0.00166051 L 18.999164 0.00166051 C 8.504372 0.00166051 -0.000836553 8.506869 -0.000836553 19.001661 Z M -0.000836553 19.001661 " stroke="#000000" stroke-width="44" stroke-opacity="1" stroke-miterlimit="4"/></g></g></g><g fill="#d9d9d9" fill-opacity="1"><g transform="translate(139.293951, 626.848444)"><g><path d="M 364.8125 0 C 343.257812 0 326.28125 -6.503906 313.875 -19.515625 C 301.46875 -32.535156 292.015625 -51.242188 285.515625 -75.640625 L 261.109375 -170.203125 C 257.847656 -183.222656 253.164062 -193.085938 247.0625 -199.796875 C 240.96875 -206.503906 231.820312 -209.859375 219.625 -209.859375 L 197.65625 -209.859375 L 172.03125 -64.0625 C 168.375 -42.90625 167.359375 -27.953125 168.984375 -19.203125 C 170.609375 -10.460938 171.421875 -6.09375 171.421875 -6.09375 C 171.421875 -6.09375 168.773438 -5.078125 163.484375 -3.046875 C 158.203125 -1.015625 149.257812 0 136.65625 0 C 114.28125 0 100.039062 -5.179688 93.9375 -15.546875 C 87.84375 -25.921875 86.832031 -42.90625 90.90625 -66.5 L 148.25 -394.09375 C 149.0625 -400.195312 149.769531 -405.6875 150.375 -410.5625 C 150.988281 -415.445312 151.296875 -419.925781 151.296875 -424 L 145.8125 -424 C 118.15625 -424 97.410156 -417.390625 83.578125 -404.171875 C 69.753906 -390.953125 62.84375 -375.597656 62.84375 -358.109375 C 62.84375 -349.566406 64.972656 -342.753906 69.234375 -337.671875 C 73.503906 -332.585938 79.503906 -330.046875 87.234375 -330.046875 C 90.492188 -330.046875 93.035156 -330.347656 94.859375 -330.953125 C 96.691406 -331.566406 97.609375 -331.875 97.609375 -331.875 C 97.609375 -331.875 97.707031 -331.46875 97.90625 -330.65625 C 98.113281 -329.84375 98.21875 -328.421875 98.21875 -326.390625 C 98.21875 -319.066406 94.351562 -311.539062 86.625 -303.8125 C 78.894531 -296.082031 67.304688 -292.21875 51.859375 -292.21875 C 31.929688 -292.21875 16.269531 -297.804688 4.875 -308.984375 C -6.507812 -320.171875 -12.203125 -334.914062 -12.203125 -353.21875 C -12.203125 -383.320312 1.113281 -408.234375 27.75 -427.953125 C 54.394531 -447.679688 92.320312 -457.546875 141.53125 -457.546875 L 183.625 -457.546875 C 206.40625 -457.546875 220.84375 -452.359375 226.9375 -441.984375 C 233.039062 -431.617188 233.859375 -414.640625 229.390625 -391.046875 L 203.15625 -243.421875 L 222.671875 -243.421875 C 247.484375 -243.421875 271.679688 -264.769531 295.265625 -307.46875 L 335.53125 -380.671875 C 350.582031 -407.921875 364.921875 -427.546875 378.546875 -439.546875 C 392.171875 -451.546875 407.117188 -457.546875 423.390625 -457.546875 C 439.648438 -457.546875 452.253906 -453.273438 461.203125 -444.734375 C 470.148438 -436.191406 474.625 -424.191406 474.625 -408.734375 C 474.625 -398.160156 472.585938 -389.414062 468.515625 -382.5 C 464.453125 -375.59375 460.285156 -370.613281 456.015625 -367.5625 C 451.742188 -364.507812 449.609375 -362.984375 449.609375 -362.984375 C 449.609375 -362.984375 448.691406 -365.21875 446.859375 -369.6875 C 445.035156 -374.164062 441.476562 -378.539062 436.1875 -382.8125 C 430.90625 -387.082031 423.382812 -389.21875 413.625 -389.21875 C 399.789062 -389.21875 387.992188 -385.046875 378.234375 -376.703125 C 368.472656 -368.367188 359.117188 -355.863281 350.171875 -339.1875 L 328.828125 -298.328125 C 321.097656 -283.273438 313.265625 -270.460938 305.328125 -259.890625 C 297.398438 -249.316406 289.164062 -241.992188 280.625 -237.921875 C 296.488281 -236.296875 309.195312 -231.109375 318.75 -222.359375 C 328.3125 -213.617188 335.125 -201.316406 339.1875 -185.453125 L 362.984375 -98.828125 C 367.460938 -83.367188 372.445312 -71.878906 377.9375 -64.359375 C 383.425781 -56.835938 391.050781 -53.078125 400.8125 -53.078125 C 410.164062 -53.078125 419.113281 -56.429688 427.65625 -63.140625 C 436.195312 -69.847656 443.617188 -77.472656 449.921875 -86.015625 C 456.222656 -94.554688 460.59375 -101.269531 463.03125 -106.15625 C 471.976562 -106.15625 475.84375 -100.867188 474.625 -90.296875 C 473.40625 -81.753906 469.644531 -72.296875 463.34375 -61.921875 C 457.039062 -51.546875 448.90625 -41.679688 438.9375 -32.328125 C 428.976562 -22.972656 417.59375 -15.242188 404.78125 -9.140625 C 391.96875 -3.046875 378.644531 0 364.8125 0 Z M 364.8125 0 "/></g></g></g></svg>